<svg xmlns="http://www.w3.org/2000/svg" viewBox="0 0 4523.3 2455.37"><defs><style>.cls-1{fill:#4d4d4d;}.cls-2{fill:#fdfdfd;}.cls-3{fill:#f1f1f1;}.cls-4{fill:#ffeabb;}.cls-5{fill:#94da85;}.cls-6{fill:#ead1a4;}.cls-7{fill:#dbccb2;}.cls-8{fill:#86c973;}.cls-9{fill:#f2e8d0;}.cls-10{fill:#d6d5d1;}.cls-11{fill:#aaa;}.cls-12{fill:#e6e6e6;}.cls-13{opacity:0.57;}.cls-14{fill:none;}.cls-15{fill:#ed1c24;}.cls-16{fill:#fff;}.cls-17{fill:#231f20;opacity:0.22;}</style></defs><title>map</title><g id="Layer_2" data-name="Layer 2"><g id="Layer_1-2" data-name="Layer 1"><path class="cls-1" d="M1559.89,2403.53C1040.26,2460.38,520.26,2402.46,0,2455.37q546.38-938,1092.57-1875.89,417.08-77.33,831.48-164.57C1802.59,1040.07,1681.23,1778.25,1559.89,2403.53Z"/><path class="cls-1" d="M1559.89,2403.53c498.34,57.07,997-1,1496,51.84q-182.22-938-364.25-1875.89c-256.86-51.5-512.73-105.75-767.57-164.57C1802.59,1040.07,1681.34,1778.25,1559.89,2403.53Z"/><path class="cls-1" d="M4523.3,2413.84c-476.92,57.07-989.8-11.27-1467.43,41.53q-182.22-938-364.25-1875.89c235.79-51.16,470.65-104.68,703.84-164.57C3759.43,1040.07,4159.22,1788.45,4523.3,2413.84Z"/><path class="cls-2" d="M1559.89,2290.79Q780.45,2376.15,0,2455.37q546.38-938,1092.57-1875.89,417.08-77.33,831.48-164.57Q1741.86,1352.65,1559.89,2290.79Z"/><path class="cls-2" d="M4487.81,2290.79q-715.47,85.53-1431.94,164.58-182.22-938-364.25-1875.89c235.79-51.16,470.65-104.68,703.84-164.57Q3941.42,1352.65,4487.81,2290.79Z"/><path class="cls-3" d="M1559.89,2290.79q747.51,85.53,1496,164.58-182.22-938-364.25-1875.89c-256.86-51.5-512.73-105.75-767.57-164.57Q1741.86,1352.65,1559.89,2290.79Z"/><polygon class="cls-4" points="1125.96 1307.11 1125.96 608.16 414.06 1837.82 1098.76 1344.04 1125.96 1307.11"/><polygon class="cls-5" points="1741.86 1348.99 1435.61 1479.15 1681.72 1660.39 1741.86 1348.99"/><path class="cls-4" d="M1497.18,1656.74l-167.33,596.79c144.79-15.07,242.18-25.07,242.18-25.07l87.33-452.28Z"/><path class="cls-5" d="M1405.5,1589.23l-229.9-169.3-892,643.29L93.13,2392.14c24.05-10.5,692.9-81.75,1122.78-126.72Z"/><polygon class="cls-6" points="2230.78 1025.47 2736.49 810.54 2697.19 608.16 2313.49 530.44 2230.78 1025.47"/><polygon class="cls-7" points="2757.22 917.34 2757.24 917.43 2680.69 949.97 2551.96 1720.43 2973.43 2030.81 2757.22 917.34"/><polygon class="cls-8" points="2116.22 2112.91 2114.66 2111.76 2062.54 2283.02 2344.74 2314.41 2564.47 999.37 1742.82 1348.58 1682.17 1661.02 2147.48 2003.68 2147.42 2003.9 2147.48 2003.89 2146.47 2007.21 2116.22 2112.91"/><polygon class="cls-6" points="2023.72 2044.8 1659.71 1776.73 1572.03 2228.46 1954.87 2271.04 2023.72 2044.8"/><polygon class="cls-7" points="2114.55 1074.87 2209.06 509.28 1917.2 450.16 1767.3 1222.46 2114.55 1074.87"/><polygon class="cls-8" points="2532.28 1838.19 2450.74 2326.2 3043.59 2392.14 3003.39 2185.13 2532.28 1838.19"/><path class="cls-8" d="M4101.32,1710.37,3801.55,1184.2l5,674.8C3907.89,1808,4009,1757,4101.32,1710.37Z"/><path class="cls-9" d="M2757.69,919.71,2974.24,2035c61.67,46.63,126.24,95.39,190.9,144.15,99.44-48.17,310.27-153.6,535.35-266.77l-6.85-917.61L3478.36,616.9Z"/><polygon class="cls-8" points="3096.62 656.66 3422.04 518.05 3381.34 446.62 3011.2 534.02 3096.62 656.66"/><polygon class="cls-5" points="3003.26 2184.45 3043.59 2392.14 3253.74 2368.6 3003.26 2184.45"/><polygon class="cls-4" points="2996.53 699.29 2899.75 560.34 2697.19 608.16 2736.4 810.1 2996.53 699.29"/><path class="cls-10" d="M3873,2299.22,4403,2239.85l-166.09-291.53A547.33,547.33,0,0,0,3873,2299.22Z"/><path class="cls-6" d="M4075.91,1947.14A546.83,546.83,0,0,1,4208.2,1898L4149,1794,3263.64,2253.4c45,33.87,89.25,67.22,131.9,99.31L3798,2307.62C3832.62,2158.22,3929.55,2024.16,4075.91,1947.14Z"/><path class="cls-9" d="M1742.9,484.89c-22.56,205.32-161.16,389-369.91,458.78A546.83,546.83,0,0,1,1232.45,971v358.5L1336,1405.78l430.22-182.85,151-772.77Z"/><path class="cls-11" d="M1678.74,497.67l-446.29,88.9V914a549.37,549.37,0,0,0,87.3-21.49C1506.54,830,1637.17,676.41,1678.74,497.67Z"/><polygon class="cls-12" points="2230.78 1347.6 1893.15 1499.91 2171.46 1695.6 2230.78 1347.6"/><path class="cls-13" d="M2169.63,1528.63c0,6.4-31.11,11.61-69.49,11.61s-69.46-5.21-69.46-11.61,31.12-18,69.46-18S2169.63,1522.2,2169.63,1528.63Z"/><path class="cls-14" d="M1740.59,451.8c0,198.6,161,359.6,359.57,359.6h0v-105h0c-140.6,0-254.57-114-254.57-254.58s114-254.55,254.57-254.55h0v-105h0C1901.54,92.22,1740.59,253.16,1740.59,451.8Z"/><path class="cls-15" d="M2100.16,811.4c-198.62,0-359.57-161-359.57-359.6s161-359.58,359.57-359.58h0V0h0c-249.53,0-451.81,202.23-451.81,451.8s451.81,1048.13,451.81,1048.13l0-.07V811.4Z"/><path class="cls-15" d="M2100.16,615.91a164.1,164.1,0,0,1,0-328.19h0V197.25h0c-140.6,0-254.57,114-254.57,254.55s114,254.58,254.57,254.58h0V615.91Z"/><path class="cls-16" d="M1936.09,451.8a164.07,164.07,0,0,0,164.07,164.11h0V287.72h0A164,164,0,0,0,1936.09,451.8Z"/><path class="cls-15" d="M2100.2,0V92.22c198.55,0,359.61,161,359.61,359.58S2298.75,811.38,2100.2,811.4v688.46C2103.39,1494.23,2552,700.51,2552,451.8,2552,202.24,2349.71,0,2100.2,0Z"/><path class="cls-17" d="M2100.2,0V92.22c198.55,0,359.61,161,359.61,359.58S2298.75,811.38,2100.2,811.4v688.46C2103.39,1494.23,2552,700.51,2552,451.8,2552,202.24,2349.71,0,2100.2,0Z"/><path class="cls-15" d="M2354.77,451.8c0-140.52-114-254.53-254.57-254.55v90.47a164.1,164.1,0,1,1,0,328.19v90.47C2240.77,706.36,2354.77,592.38,2354.77,451.8Z"/><path class="cls-17" d="M2354.77,451.8c0-140.52-114-254.53-254.57-254.55v90.47a164.1,164.1,0,1,1,0,328.19v90.47C2240.77,706.36,2354.77,592.38,2354.77,451.8Z"/><path class="cls-16" d="M2264.3,451.8a164.09,164.09,0,0,0-164.1-164.08V615.91A164.13,164.13,0,0,0,2264.3,451.8Z"/><path class="cls-17" d="M2264.3,451.8a164.09,164.09,0,0,0-164.1-164.08V615.91A164.13,164.13,0,0,0,2264.3,451.8Z"/></g></g></svg>